<svg width="52" height="52" viewBox="0 0 52 52" fill="none" xmlns="http://www.w3.org/2000/svg">
<path d="M51.9537 14.6547C51.9537 22.4734 45.6164 28.8107 37.7977 28.8107C29.9804 28.8107 23.6417 22.4734 23.6417 14.6547C23.6417 6.8374 29.9804 0.498733 37.7977 0.498733C45.6164 0.498733 51.9537 6.8374 51.9537 14.6547Z" fill="#0D4E50"/>
<path d="M37.7981 32.9659C27.6848 32.9659 19.4874 24.7686 19.4874 14.6552C19.4874 12.3099 19.9661 10.0859 20.7701 8.02458C9.40876 8.78325 0.400757 18.1419 0.400757 29.6966C0.400757 41.7459 10.1701 51.5139 22.2181 51.5139C33.5234 51.5139 42.7114 42.8846 43.8168 31.8712C41.9221 32.5339 39.9181 32.9659 37.7981 32.9659Z" fill="#0D4E50"/>
</svg>
